<svg xmlns="http://www.w3.org/2000/svg" xmlns:xlink="http://www.w3.org/1999/xlink" viewBox="0 0 1233.24 96"><defs><style>.cls-1,.cls-4{fill:none;}.cls-2{clip-path:url(#clip-path);}.cls-3{fill:#fff;}.cls-4{stroke:#231f20;stroke-miterlimit:10;stroke-width:2.14px;}.cls-5{fill:#77c7d9;}.cls-6{fill:#365b73;}.cls-7{fill:#f26d85;}</style><clipPath id="clip-path" transform="translate(0 -17.65)"><rect class="cls-1" y="17.65" width="172.9" height="96"/></clipPath></defs><g id="Layer_2" data-name="Layer 2"><g id="Layer_1-2" data-name="Layer 1"><g id="Artwork_1" data-name="Artwork 1"><g class="cls-2"><g class="cls-2"><path class="cls-3" d="M133.77,65.29c-13.23,3.17-29.59,5-47.32,5s-34.1-1.88-47.33-5a214.48,214.48,0,0,1,22.69-3.24h0C69.61,61.34,77.88,61,86.45,61s16.84.38,24.64,1.09h0a211.35,211.35,0,0,1,22.68,3.24" transform="translate(0 -17.65)"/><path class="cls-4" d="M133.77,65.29c-13.23,3.17-29.59,5-47.32,5s-34.1-1.88-47.33-5a214.48,214.48,0,0,1,22.69-3.24h0C69.61,61.34,77.88,61,86.45,61s16.84.38,24.64,1.09h0A211.35,211.35,0,0,1,133.77,65.29Z" transform="translate(0 -17.65)"/><path class="cls-5" d="M166.06,44.53c0,8.51-12.7,16.06-32.29,20.76-13.23,3.17-29.59,5-47.32,5s-34.1-1.88-47.33-5C19.54,60.59,6.84,53,6.84,44.53c0-14.25,35.64-25.81,79.61-25.81s79.61,11.56,79.61,25.81" transform="translate(0 -17.65)"/><path class="cls-4" d="M166.06,44.53c0,8.51-12.7,16.06-32.29,20.76-13.23,3.17-29.59,5-47.32,5s-34.1-1.88-47.33-5C19.54,60.59,6.84,53,6.84,44.53c0-14.25,35.64-25.81,79.61-25.81S166.06,30.28,166.06,44.53Z" transform="translate(0 -17.65)"/><path d="M159,44.53c0,10.29-32.5,18.62-72.58,18.62S13.87,54.82,13.87,44.53,46.36,25.91,86.45,25.91,159,34.25,159,44.53" transform="translate(0 -17.65)"/><ellipse class="cls-4" cx="86.45" cy="26.88" rx="72.58" ry="18.62"/><path class="cls-6" d="M171.83,86.77c0,14.26-38.23,25.81-85.38,25.81S1.07,101,1.07,86.77l.29-2.14,5.48-40.1c0,8.51,12.7,16.06,32.28,20.76,13.23,3.17,29.6,5,47.33,5s34.09-1.88,47.32-5c19.59-4.7,32.29-12.25,32.29-20.76l5.47,40.1Z" transform="translate(0 -17.65)"/><path class="cls-4" d="M171.83,86.77c0,14.26-38.23,25.81-85.38,25.81S1.07,101,1.07,86.77l.29-2.14,5.48-40.1c0,8.51,12.7,16.06,32.28,20.76,13.23,3.17,29.6,5,47.33,5s34.09-1.88,47.32-5c19.59-4.7,32.29-12.25,32.29-20.76l5.47,40.1Z" transform="translate(0 -17.65)"/><polygon class="cls-7" points="100.89 69.6 100.89 77.9 90.39 77.9 90.39 88.2 82.5 88.2 82.5 77.9 72 77.9 72 69.6 82.5 69.6 82.5 59.3 90.39 59.3 90.39 69.6 100.89 69.6"/><polygon class="cls-4" points="100.89 69.6 100.89 77.9 90.39 77.9 90.39 88.2 82.5 88.2 82.5 77.9 72 77.9 72 69.6 82.5 69.6 82.5 59.3 90.39 59.3 90.39 69.6 100.89 69.6"/></g></g></g><path class="cls-3" d="M209.89,96.61l3.93-.39C216,96,217,95.3,217,92.68V35.31L210,34.78V21.94h37.46c26.07,0,42.71,12.84,42.71,40.61,0,34.06-20.31,46.51-42.18,46.51H209.89Zm29.6-3.4h7.34c13.23,0,20.69-7.86,20.69-28.56,0-23.06-9.69-27.25-20.69-27.25h-7.34Z" transform="translate(0 -17.65)"/><path class="cls-3" d="M338.39,110.76c-24.49,0-39-15.33-39-45.06,0-33.54,21.22-45.46,40.87-45.46,20.56,0,38.25,12.18,38.25,45.46C378.48,95.56,362.76,110.76,338.39,110.76ZM339.44,92c13,0,16-12.71,16-25.94,0-11-2.22-26.86-16.5-26.86-12.71,0-16.51,12.45-16.51,25.55C322.41,77,324.51,92,339.44,92Z" transform="translate(0 -17.65)"/><path class="cls-3" d="M439.66,91.76V76.31l-8-.53V63.08H467V75.52l-3.4.39c-2.23.27-3.15,1.18-3.15,3.67v22.27c-7.33,5.24-19.25,8.78-32.09,8.78-25.28,0-41-14.67-41-44.93,0-33.8,21.48-45.46,44.14-45.46,11,0,21.88,2.49,27.91,5.63V48.8l-16.51,1.05V42.12c0-2-.26-3-2-3.54a43.58,43.58,0,0,0-8.65-.79c-15.46,0-21.88,11.14-21.88,27.12,0,18.08,5.64,28.69,18.61,28.69A31.71,31.71,0,0,0,439.66,91.76Z" transform="translate(0 -17.65)"/><path class="cls-3" d="M538.82,84.3c0-6.16-5.11-8.39-13.1-10.48-11.4-3-24.89-8.52-24.89-26.07s13.23-27.38,32.49-27.38c10.48,0,20,2.23,26.2,5.24V47L543,48V41.46c0-1.83-.13-2.88-1.83-3.4a29.72,29.72,0,0,0-7.34-.79c-5.11,0-9.69,2.1-9.69,7.86,0,6.16,5.24,8.12,13.89,10.87,11.92,3.8,24.62,8,24.62,25.94,0,18.21-13.1,28.82-34.19,28.82-8.91,0-19.78-1.44-28.29-5.24V83.12l16.9-1.05v7.34c0,2,.13,3,1.83,3.53a31.58,31.58,0,0,0,8,.92C533.19,93.86,538.82,91.5,538.82,84.3Z" transform="translate(0 -17.65)"/><path class="cls-3" d="M567.38,109.06V96.61l3.41-.39c2.62-.26,3.53-1.57,4.32-3.8l18.73-57-6.94-.66V21.94h36.28L649,95.56l6.42.66v12.84H618.34V96.61l4.06-.39c2.49-.26,2.62-1.84,2-3.8l-1.83-5.63H598l-3,9,6.55.39v12.84Zm33.4-36.42h19l-9-30.65h-.66Z" transform="translate(0 -17.65)"/><path class="cls-3" d="M660.39,96.61l3.93-.39c2.62-.39,3.14-1,3.14-4.19V35.31l-6.94-.53V21.94h67.07V44.61l-16.51,1V40.41c0-2.49-.78-3.66-3.4-3.66H690V58.49h31.18V74.34H690V95.69l10.22.53v12.84H660.39Z" transform="translate(0 -17.65)"/><path class="cls-3" d="M734.53,96.61l4.07-.52c2.61-.4,3-1,3-4.19V35.31l-7-.53V21.94h64.19V44.61l-16.5,1V40.28c0-2.62-1.05-3.53-3.28-3.53H764.14V56.53h29.47V72.25H764.14v22h16.51c2.22,0,3.27-.78,3.27-3.53V84.17l16.51,1.18v23.71h-65.9Z" transform="translate(0 -17.65)"/><path class="cls-3" d="M832.91,96.61l3.93-.39c2.62-.39,3.15-1,3.15-4.19V35.31l-7-.53V21.94h67.07V44.61l-16.5,1V40.41c0-2.49-.79-3.66-3.41-3.66H862.52V58.49h31.17V74.34H862.52V95.69l10.21.53v12.84H832.91Z" transform="translate(0 -17.65)"/><path class="cls-3" d="M943.48,110.76c-24.5,0-39-15.33-39-45.06,0-33.54,21.22-45.46,40.87-45.46,20.57,0,38.25,12.18,38.25,45.46C983.56,95.56,967.84,110.76,943.48,110.76Zm1-18.73c13,0,16-12.71,16-25.94,0-11-2.23-26.86-16.51-26.86-12.71,0-16.51,12.45-16.51,25.55C927.49,77,929.59,92,944.52,92Z" transform="translate(0 -17.65)"/><path class="cls-3" d="M1031.51,110.76c-24.5,0-39-15.33-39-45.06,0-33.54,21.22-45.46,40.87-45.46,20.57,0,38.25,12.18,38.25,45.46C1071.59,95.56,1055.87,110.76,1031.51,110.76Zm1-18.73c13,0,16-12.71,16-25.94,0-11-2.23-26.86-16.51-26.86-12.71,0-16.5,12.45-16.5,25.55C1015.53,77,1017.62,92,1032.56,92Z" transform="translate(0 -17.65)"/><path class="cls-3" d="M1080,96.61l3.93-.39c2.22-.26,3.14-.92,3.14-3.54V35.31l-6.94-.53V21.94h37.46c26.07,0,42.71,12.84,42.71,40.61,0,34.06-20.31,46.51-42.18,46.51H1080Zm29.6-3.4h7.34c13.23,0,20.7-7.86,20.7-28.56,0-23.06-9.7-27.25-20.7-27.25h-7.34Z" transform="translate(0 -17.65)"/><path class="cls-3" d="M1209.4,84.3c0-6.16-5.11-8.39-13.1-10.48-11.39-3-24.89-8.52-24.89-26.07s13.23-27.38,32.49-27.38c10.48,0,20,2.23,26.2,5.24V47l-16.51,1V41.46c0-1.83-.13-2.88-1.83-3.4a29.66,29.66,0,0,0-7.34-.79c-5.1,0-9.69,2.1-9.69,7.86,0,6.16,5.24,8.12,13.89,10.87,11.92,3.8,24.62,8,24.62,25.94,0,18.21-13.1,28.82-34.19,28.82-8.9,0-19.78-1.44-28.29-5.24V83.12l16.9-1.05v7.34c0,2,.13,3,1.83,3.53a31.58,31.58,0,0,0,8,.92C1203.77,93.86,1209.4,91.5,1209.4,84.3Z" transform="translate(0 -17.65)"/></g></g></svg>