<svg xmlns="http://www.w3.org/2000/svg" xmlns:xlink="http://www.w3.org/1999/xlink" viewBox="0 0 592.4 328.93"><defs><style>.cls-1,.cls-4{fill:none;}.cls-2{clip-path:url(#clip-path);}.cls-3{fill:#fff;}.cls-4{stroke:#231f20;stroke-miterlimit:10;stroke-width:7.33px;}.cls-5{fill:#77c7d9;}.cls-6{fill:#365b73;}.cls-7{fill:#f26d85;}</style><clipPath id="clip-path" transform="translate(0 0)"><rect class="cls-1" width="592.4" height="328.93"/></clipPath></defs><g id="Layer_2" data-name="Layer 2"><g id="Layer_1-2" data-name="Layer 1"><g id="Artwork_1" data-name="Artwork 1"><g class="cls-2"><g class="cls-2"><path class="cls-3" d="M458.34,163.21C413,174.09,356.94,180.53,296.2,180.53s-116.83-6.44-162.15-17.31a730.65,730.65,0,0,1,77.73-11.09h0c26.73-2.43,55.06-3.73,84.41-3.73s57.69,1.3,84.42,3.73h0a727.79,727.79,0,0,1,77.71,11.08" transform="translate(0 0)"/><path class="cls-4" d="M458.34,163.21C413,174.09,356.94,180.53,296.2,180.53s-116.83-6.44-162.15-17.31a730.65,730.65,0,0,1,77.73-11.09h0c26.73-2.43,55.06-3.73,84.41-3.73s57.69,1.3,84.42,3.73h0A727.79,727.79,0,0,1,458.34,163.21Z" transform="translate(0 0)"/><path class="cls-5" d="M569,92.1c0,29.14-43.51,55-110.62,71.11C413,174.09,356.94,180.53,296.2,180.53s-116.83-6.44-162.15-17.31C67,147.11,23.44,121.24,23.44,92.1c0-48.85,122.12-88.43,272.76-88.43S569,43.25,569,92.1" transform="translate(0 0)"/><path class="cls-4" d="M569,92.1c0,29.14-43.51,55-110.62,71.11C413,174.09,356.94,180.53,296.2,180.53s-116.83-6.44-162.15-17.31C67,147.11,23.44,121.24,23.44,92.1c0-48.85,122.12-88.43,272.76-88.43S569,43.25,569,92.1Z" transform="translate(0 0)"/><path d="M544.89,92.1c0,35.23-111.34,63.8-248.69,63.8S47.51,127.33,47.51,92.1,158.85,28.29,296.2,28.29,544.89,56.86,544.89,92.1" transform="translate(0 0)"/><ellipse class="cls-4" cx="296.2" cy="92.1" rx="248.69" ry="63.8"/><path class="cls-6" d="M588.73,236.83c0,48.83-131,88.43-292.53,88.43S3.67,285.66,3.67,236.83l1-7.36L23.44,92.1c0,29.14,43.51,55,110.61,71.12,45.32,10.87,101.42,17.31,162.15,17.31S413,174.09,458.34,163.21C525.45,147.11,569,121.24,569,92.1l18.77,137.37Z" transform="translate(0 0)"/><path class="cls-4" d="M588.73,236.83c0,48.83-131,88.43-292.53,88.43S3.67,285.66,3.67,236.83l1-7.36L23.44,92.1c0,29.14,43.51,55,110.61,71.12,45.32,10.87,101.42,17.31,162.15,17.31S413,174.09,458.34,163.21C525.45,147.11,569,121.24,569,92.1l18.77,137.37Z" transform="translate(0 0)"/><polygon class="cls-7" points="345.7 238.46 345.7 266.91 309.71 266.91 309.71 302.19 282.68 302.19 282.68 266.91 246.7 266.91 246.7 238.46 282.68 238.46 282.68 203.19 309.71 203.19 309.71 238.46 345.7 238.46"/><polygon class="cls-4" points="345.7 238.46 345.7 266.91 309.71 266.91 309.71 302.19 282.68 302.19 282.68 266.91 246.7 266.91 246.7 238.46 282.68 238.46 282.68 203.19 309.71 203.19 309.71 238.46 345.7 238.46"/></g></g></g></g></g></svg>