<svg xmlns="http://www.w3.org/2000/svg" viewBox="0 0 969.21 770.97"><defs><style>.cls-1,.cls-2{fill:#fff;}.cls-2,.cls-3,.cls-4,.cls-5,.cls-6{stroke:#231f20;stroke-miterlimit:10;stroke-width:8px;}.cls-3{fill:#77c7d9;}.cls-5{fill:#365b73;}.cls-6{fill:#f26d85;}</style></defs><g id="Layer_2" data-name="Layer 2"><g id="Layer_1-2" data-name="Layer 1"><path class="cls-1" d="M164.15,781l6.45-.65c4.3-.64,5.16-1.72,5.16-6.88V680.35l-11.39-.86V658.42H274.45v37.2l-27.09,1.72v-8.6c0-4.09-1.29-6-5.59-6h-29v35.69h51.17v26H212.74v35l16.77.86v21.07H164.15Z" transform="translate(-7.85 -33.22)"/><path class="cls-1" d="M345.61,804.19c-40.2,0-64.07-25.16-64.07-74,0-55,34.83-74.6,67.08-74.6,33.76,0,62.78,20,62.78,74.6C411.4,779.25,385.6,804.19,345.61,804.19Zm1.72-30.75c21.29,0,26.23-20.85,26.23-42.56,0-18.06-3.65-44.08-27.09-44.08-20.85,0-27.09,20.43-27.09,41.92C319.38,748.72,322.82,773.44,347.33,773.44Z" transform="translate(-7.85 -33.22)"/><path class="cls-1" d="M490.09,804.19c-40.2,0-64.07-25.16-64.07-74,0-55,34.83-74.6,67.08-74.6,33.76,0,62.78,20,62.78,74.6C555.88,779.25,530.08,804.19,490.09,804.19Zm1.72-30.75c21.29,0,26.23-20.85,26.23-42.56,0-18.06-3.65-44.08-27.09-44.08-20.85,0-27.09,20.43-27.09,41.92C463.86,748.72,467.3,773.44,491.81,773.44Z" transform="translate(-7.85 -33.22)"/><path class="cls-1" d="M569.64,781l6.45-.65c3.66-.43,5.16-1.5,5.16-5.8V680.35l-11.39-.86V658.42h61.49c42.78,0,70.09,21.07,70.09,66.65,0,55.9-33.33,76.32-69.23,76.32H569.64Zm48.59-5.59h12c21.72,0,34-12.9,34-46.87,0-37.84-15.91-44.72-34-44.72h-12Z" transform="translate(-7.85 -33.22)"/><path class="cls-1" d="M782.06,760.76c0-10.11-8.39-13.76-21.5-17.2-18.71-4.94-40.85-14-40.85-42.78,0-28.6,21.72-44.94,53.32-44.94,17.2,0,32.89,3.66,43,8.6v35l-27.09,1.72V690.46c0-3-.22-4.73-3-5.59a49.16,49.16,0,0,0-12-1.29c-8.39,0-15.91,3.44-15.91,12.9,0,10.1,8.6,13.33,22.79,17.84,19.56,6.23,40.42,13.11,40.42,42.57,0,29.88-21.5,47.3-56.12,47.3-14.62,0-32.46-2.37-46.43-8.6V758.82l27.73-1.72v12c0,3.23.21,5,3,5.81a52.32,52.32,0,0,0,13.11,1.5C772.81,776.45,782.06,772.58,782.06,760.76Z" transform="translate(-7.85 -33.22)"/><path class="cls-1" d="M7.85,158.56l6.45-.64c3.66-.43,5.16-1.51,5.16-5.81V57.94L8.07,57.08V36H69.56c42.78,0,70.09,21.07,70.09,66.65,0,55.9-33.33,76.33-69.23,76.33H7.85ZM56.44,153h12c21.72,0,34-12.9,34-46.87,0-37.84-15.91-44.72-34-44.72h-12Z" transform="translate(-7.85 -33.22)"/><path class="cls-1" d="M218.76,181.78c-40.2,0-64.07-25.15-64.07-74,0-55,34.83-74.6,67.08-74.6,33.76,0,62.78,20,62.78,74.6C284.55,156.84,258.75,181.78,218.76,181.78ZM220.48,151c21.29,0,26.23-20.86,26.23-42.57,0-18.06-3.65-44.08-27.09-44.08-20.85,0-27.09,20.43-27.09,41.93C192.53,126.31,196,151,220.48,151Z" transform="translate(-7.85 -33.22)"/><path class="cls-1" d="M385,150.61V125.24l-13.12-.86V103.52h58.05V124l-5.59.64c-3.65.43-5.16,1.94-5.16,6v36.55c-12,8.6-31.6,14.41-52.67,14.41-41.5,0-67.29-24.08-67.29-73.75,0-55.47,35.25-74.6,72.45-74.6,18.06,0,35.9,4.08,45.79,9.24V80.09l-27.09,1.72V69.12c0-3.22-.43-4.94-3.22-5.8A71,71,0,0,0,372.92,62C347.55,62,337,80.3,337,106.53c0,29.67,9.25,47.09,30.53,47.09A52.13,52.13,0,0,0,385,150.61Z" transform="translate(-7.85 -33.22)"/><path class="cls-1" d="M547.71,138.35c0-10.1-8.38-13.76-21.5-17.2-18.7-4.94-40.85-14-40.85-42.78,0-28.6,21.72-44.94,53.32-44.94,17.2,0,32.89,3.66,43,8.6V77.08L554.59,78.8V68.05c0-3-.22-4.73-3-5.59a49.16,49.16,0,0,0-12-1.29c-8.38,0-15.91,3.44-15.91,12.9,0,10.1,8.6,13.33,22.79,17.84C566,98.15,586.84,105,586.84,134.48c0,29.89-21.5,47.3-56.12,47.3-14.62,0-32.46-2.36-46.43-8.6V136.42L512,134.7v12c0,3.22.22,4.94,3,5.8a52.35,52.35,0,0,0,13.12,1.51C538.46,154.05,547.71,150.18,547.71,138.35Z" transform="translate(-7.85 -33.22)"/><path class="cls-1" d="M594.58,179V158.56l5.59-.64c4.3-.43,5.8-2.58,7.09-6.24L638,58.16l-11.4-1.08V36h59.56l42.35,120.83,10.54,1.08V179H678.21V158.56l6.67-.64c4.08-.43,4.3-3,3.22-6.24l-3-9.24h-40.2l-4.95,14.83,10.75.65V179Zm54.82-59.77h31.18L665.74,68.91h-1.07Z" transform="translate(-7.85 -33.22)"/><path class="cls-1" d="M747.23,158.56l6.45-.64c4.3-.65,5.16-1.72,5.16-6.88V57.94l-11.4-.86V36H857.52v37.2l-27.09,1.72v-8.6c0-4.09-1.29-6-5.59-6h-29V96H847v26H795.82v35.05l16.77.86V179H747.23Z" transform="translate(-7.85 -33.22)"/><path class="cls-1" d="M868.92,158.56l6.66-.86c4.3-.64,4.95-1.72,4.95-6.88V57.94l-11.4-.86V36H974.48v37.2l-27.09,1.72V66.11c0-4.3-1.72-5.8-5.38-5.8h-24.5V92.77h48.37v25.8H917.51v36.12H944.6c3.65,0,5.37-1.29,5.37-5.8V138.14l27.09,1.93V179H868.92Z" transform="translate(-7.85 -33.22)"/><path class="cls-2" d="M669.77,419.66c-49.44,11.87-110.62,18.9-176.88,18.9s-127.45-7-176.89-18.89a792.92,792.92,0,0,1,84.79-12.09h0c29.16-2.66,60.07-4.08,92.09-4.08s62.93,1.42,92.09,4.08h0A792.81,792.81,0,0,1,669.77,419.66Z" transform="translate(-7.85 -33.22)"/><path class="cls-3" d="M790.44,342.09c0,31.79-47.47,60-120.67,77.57-49.44,11.87-110.62,18.9-176.88,18.9s-127.45-7-176.89-18.89c-73.2-17.58-120.67-45.79-120.67-77.58,0-53.29,133.23-96.47,297.56-96.47S790.44,288.8,790.44,342.09Z" transform="translate(-7.85 -33.22)"/><ellipse class="cls-4" cx="485.03" cy="308.87" rx="271.29" ry="69.6"/><path class="cls-5" d="M812,500c0,53.27-142.86,96.47-319.11,96.47S173.77,553.24,173.77,500l1.09-8,20.47-149.85c0,31.79,47.47,60,120.67,77.58,49.44,11.86,110.64,18.89,176.89,18.89s127.44-7,176.88-18.9c73.2-17.57,120.67-45.78,120.67-77.57l20.47,149.85Z" transform="translate(-7.85 -33.22)"/><polygon class="cls-6" points="539.03 468.54 539.03 499.57 499.77 499.57 499.77 538.05 470.29 538.05 470.29 499.57 431.03 499.57 431.03 468.54 470.29 468.54 470.29 430.05 499.77 430.05 499.77 468.54 539.03 468.54"/></g></g></svg>