<svg version="1" xmlns="http://www.w3.org/2000/svg" width="682.667" height="682.667" viewBox="0 0 512.000000 512.000000"><path d="M210.9 114c-66.5 4.2-127.9 18.5-161.4 37.7C27 164.6 18.3 175.8 16 195c-.6 5.2-1.7 14-2.5 19.5s-2.4 16.7-3.5 25c-1.1 8.2-3.8 28.1-6 44-4.8 35-4.9 39.6-1.4 47.2C14 354.6 62.3 376.2 131 387.9c40.6 7 74.3 9.5 125 9.5 42.3 0 62.9-1.1 97.5-5.5 82.3-10.3 141.1-33.4 154.9-60.7 3.8-7.5 4.1-12 1.7-28.2-1.2-8-3.7-26.2-5.6-40.5-1.9-14.3-4.2-30.8-5-36.7-.9-6-2.4-17.6-3.5-25.9-2.3-18.1-4.4-23.3-12.7-32-20.2-21.2-65.7-38.4-126.8-47.9-30.2-4.7-51.2-6.1-92.5-6.5-21.7-.2-45.6 0-53.1.5z"/></svg>